<mxfile host="Electron" agent="Mozilla/5.0 (Windows NT 10.0; Win64; x64) AppleWebKit/537.36 (KHTML, like Gecko) draw.io/24.7.8 Chrome/128.0.6613.36 Electron/32.0.1 Safari/537.36" version="24.7.8">
  <diagram name="sd" id="B0KSWgwW_1ZS3xztmcam">
    <mxGraphModel dx="869" dy="664" grid="1" gridSize="10" guides="1" tooltips="1" connect="1" arrows="1" fold="1" page="1" pageScale="1" pageWidth="827" pageHeight="1169" math="0" shadow="0">
      <root>
        <mxCell id="a64HkmenT_zKooSn4q8b-0" />
        <mxCell id="a64HkmenT_zKooSn4q8b-1" parent="a64HkmenT_zKooSn4q8b-0" />
        <mxCell id="a64HkmenT_zKooSn4q8b-2" style="edgeStyle=orthogonalEdgeStyle;shape=connector;rounded=0;orthogonalLoop=1;jettySize=auto;html=1;labelBackgroundColor=default;strokeColor=default;fontFamily=Helvetica;fontSize=11;fontColor=default;startArrow=none;startFill=0;endArrow=none;endFill=0;exitX=0.5;exitY=1;exitDx=0;exitDy=0;" parent="a64HkmenT_zKooSn4q8b-1" source="a64HkmenT_zKooSn4q8b-3" edge="1">
          <mxGeometry relative="1" as="geometry">
            <mxPoint x="420" y="160" as="targetPoint" />
          </mxGeometry>
        </mxCell>
        <mxCell id="a64HkmenT_zKooSn4q8b-3" value="Decode" style="rounded=0;whiteSpace=wrap;html=1;" parent="a64HkmenT_zKooSn4q8b-1" vertex="1">
          <mxGeometry x="360" y="80" width="120" height="60" as="geometry" />
        </mxCell>
        <mxCell id="a64HkmenT_zKooSn4q8b-4" style="edgeStyle=orthogonalEdgeStyle;shape=connector;rounded=0;orthogonalLoop=1;jettySize=auto;html=1;exitX=0.5;exitY=0;exitDx=0;exitDy=0;labelBackgroundColor=default;strokeColor=default;fontFamily=Helvetica;fontSize=11;fontColor=default;startArrow=none;startFill=0;endArrow=none;endFill=0;" parent="a64HkmenT_zKooSn4q8b-1" source="a64HkmenT_zKooSn4q8b-5" edge="1">
          <mxGeometry relative="1" as="geometry">
            <mxPoint x="260" y="160" as="targetPoint" />
          </mxGeometry>
        </mxCell>
        <mxCell id="a64HkmenT_zKooSn4q8b-5" value="Initialise local variables" style="rounded=0;whiteSpace=wrap;html=1;" parent="a64HkmenT_zKooSn4q8b-1" vertex="1">
          <mxGeometry x="200" y="200" width="120" height="60" as="geometry" />
        </mxCell>
        <mxCell id="a64HkmenT_zKooSn4q8b-6" style="edgeStyle=orthogonalEdgeStyle;shape=connector;rounded=0;orthogonalLoop=1;jettySize=auto;html=1;exitX=0.5;exitY=0;exitDx=0;exitDy=0;labelBackgroundColor=default;strokeColor=default;fontFamily=Helvetica;fontSize=11;fontColor=default;startArrow=none;startFill=0;endArrow=none;endFill=0;" parent="a64HkmenT_zKooSn4q8b-1" source="a64HkmenT_zKooSn4q8b-8" edge="1">
          <mxGeometry relative="1" as="geometry">
            <mxPoint x="420" y="160" as="targetPoint" />
          </mxGeometry>
        </mxCell>
        <mxCell id="LgUnG8IKYTyM7h--CjLK-17" style="edgeStyle=none;shape=connector;rounded=0;orthogonalLoop=1;jettySize=auto;html=1;exitX=0.5;exitY=1;exitDx=0;exitDy=0;strokeColor=default;align=center;verticalAlign=middle;fontFamily=Helvetica;fontSize=11;fontColor=default;labelBackgroundColor=default;endArrow=none;endFill=0;" parent="a64HkmenT_zKooSn4q8b-1" source="a64HkmenT_zKooSn4q8b-8" edge="1">
          <mxGeometry relative="1" as="geometry">
            <mxPoint x="420" y="280" as="targetPoint" />
          </mxGeometry>
        </mxCell>
        <mxCell id="a64HkmenT_zKooSn4q8b-8" value="Loop for each letter&lt;br&gt;in the cipher text" style="rounded=1;whiteSpace=wrap;html=1;arcSize=47;" parent="a64HkmenT_zKooSn4q8b-1" vertex="1">
          <mxGeometry x="360" y="200" width="120" height="60" as="geometry" />
        </mxCell>
        <mxCell id="a64HkmenT_zKooSn4q8b-10" style="edgeStyle=orthogonalEdgeStyle;shape=connector;rounded=0;orthogonalLoop=1;jettySize=auto;html=1;exitX=0.5;exitY=0;exitDx=0;exitDy=0;labelBackgroundColor=default;strokeColor=default;fontFamily=Helvetica;fontSize=11;fontColor=default;startArrow=none;startFill=0;endArrow=none;endFill=0;" parent="a64HkmenT_zKooSn4q8b-1" source="a64HkmenT_zKooSn4q8b-11" edge="1">
          <mxGeometry relative="1" as="geometry">
            <mxPoint x="260" y="280" as="targetPoint" />
          </mxGeometry>
        </mxCell>
        <mxCell id="a64HkmenT_zKooSn4q8b-11" value="&lt;font style=&quot;font-size: 12px;&quot; face=&quot;Helvetica&quot;&gt;Get ASCII value&lt;/font&gt;" style="rounded=0;whiteSpace=wrap;html=1;fontFamily=Lucida Console;fontSize=12;fontColor=default;" parent="a64HkmenT_zKooSn4q8b-1" vertex="1">
          <mxGeometry x="200" y="319" width="120" height="60" as="geometry" />
        </mxCell>
        <mxCell id="LgUnG8IKYTyM7h--CjLK-3" style="rounded=0;orthogonalLoop=1;jettySize=auto;html=1;exitX=0.5;exitY=0;exitDx=0;exitDy=0;entryX=0.5;entryY=1;entryDx=0;entryDy=0;endArrow=none;endFill=0;" parent="a64HkmenT_zKooSn4q8b-1" source="a64HkmenT_zKooSn4q8b-19" target="a64HkmenT_zKooSn4q8b-21" edge="1">
          <mxGeometry relative="1" as="geometry" />
        </mxCell>
        <mxCell id="a64HkmenT_zKooSn4q8b-19" value="&lt;font style=&quot;font-size: 12px;&quot; face=&quot;Helvetica&quot;&gt;Subtract shift value&lt;br&gt;from ASCII value&lt;/font&gt;" style="rounded=0;whiteSpace=wrap;html=1;fontFamily=Lucida Console;fontSize=12;fontColor=default;" parent="a64HkmenT_zKooSn4q8b-1" vertex="1">
          <mxGeometry x="359" y="440" width="120" height="60" as="geometry" />
        </mxCell>
        <mxCell id="LgUnG8IKYTyM7h--CjLK-16" style="edgeStyle=none;shape=connector;rounded=0;orthogonalLoop=1;jettySize=auto;html=1;exitX=0.5;exitY=0;exitDx=0;exitDy=0;strokeColor=default;align=center;verticalAlign=middle;fontFamily=Helvetica;fontSize=11;fontColor=default;labelBackgroundColor=default;endArrow=none;endFill=0;" parent="a64HkmenT_zKooSn4q8b-1" source="a64HkmenT_zKooSn4q8b-21" edge="1">
          <mxGeometry relative="1" as="geometry">
            <mxPoint x="419" y="280" as="targetPoint" />
          </mxGeometry>
        </mxCell>
        <mxCell id="a64HkmenT_zKooSn4q8b-21" value="Is ASCII value&lt;br&gt;65-90 or 97-122?" style="shape=hexagon;perimeter=hexagonPerimeter2;whiteSpace=wrap;html=1;fixedSize=1;fontFamily=Helvetica;fontSize=11;fontColor=default;" parent="a64HkmenT_zKooSn4q8b-1" vertex="1">
          <mxGeometry x="359" y="320" width="120" height="60" as="geometry" />
        </mxCell>
        <mxCell id="LgUnG8IKYTyM7h--CjLK-7" style="edgeStyle=none;shape=connector;rounded=0;orthogonalLoop=1;jettySize=auto;html=1;exitX=0.5;exitY=0;exitDx=0;exitDy=0;strokeColor=default;align=center;verticalAlign=middle;fontFamily=Helvetica;fontSize=11;fontColor=default;labelBackgroundColor=default;endArrow=none;endFill=0;entryX=0.375;entryY=1;entryDx=0;entryDy=0;" parent="a64HkmenT_zKooSn4q8b-1" source="a64HkmenT_zKooSn4q8b-22" target="LgUnG8IKYTyM7h--CjLK-6" edge="1">
          <mxGeometry relative="1" as="geometry">
            <mxPoint x="409" y="630" as="targetPoint" />
          </mxGeometry>
        </mxCell>
        <mxCell id="a64HkmenT_zKooSn4q8b-22" value="&lt;font style=&quot;font-size: 12px;&quot; face=&quot;Helvetica&quot;&gt;Add 26 to&lt;br&gt;ASCII value&lt;/font&gt;" style="rounded=0;whiteSpace=wrap;html=1;fontFamily=Lucida Console;fontSize=12;fontColor=default;" parent="a64HkmenT_zKooSn4q8b-1" vertex="1">
          <mxGeometry x="279" y="680" width="120" height="60" as="geometry" />
        </mxCell>
        <mxCell id="a64HkmenT_zKooSn4q8b-23" style="edgeStyle=orthogonalEdgeStyle;shape=connector;rounded=0;orthogonalLoop=1;jettySize=auto;html=1;exitX=0.5;exitY=0;exitDx=0;exitDy=0;labelBackgroundColor=default;strokeColor=default;fontFamily=Helvetica;fontSize=11;fontColor=default;startArrow=none;startFill=0;endArrow=none;endFill=0;" parent="a64HkmenT_zKooSn4q8b-1" source="a64HkmenT_zKooSn4q8b-24" edge="1">
          <mxGeometry relative="1" as="geometry">
            <mxPoint x="580" y="279" as="targetPoint" />
          </mxGeometry>
        </mxCell>
        <mxCell id="a64HkmenT_zKooSn4q8b-24" value="&lt;font face=&quot;Helvetica&quot;&gt;&lt;span style=&quot;font-size: 12px;&quot;&gt;Add ASCII &lt;br&gt;character to&lt;br&gt;plain text&lt;/span&gt;&lt;/font&gt;" style="rounded=0;whiteSpace=wrap;html=1;fontFamily=Lucida Console;fontSize=12;fontColor=default;" parent="a64HkmenT_zKooSn4q8b-1" vertex="1">
          <mxGeometry x="520" y="319" width="120" height="60" as="geometry" />
        </mxCell>
        <mxCell id="a64HkmenT_zKooSn4q8b-26" value="" style="endArrow=none;html=1;rounded=0;labelBackgroundColor=default;strokeColor=default;fontFamily=Helvetica;fontSize=11;fontColor=default;shape=connector;" parent="a64HkmenT_zKooSn4q8b-1" edge="1">
          <mxGeometry width="50" height="50" relative="1" as="geometry">
            <mxPoint x="260" y="280" as="sourcePoint" />
            <mxPoint x="580" y="280" as="targetPoint" />
          </mxGeometry>
        </mxCell>
        <mxCell id="a64HkmenT_zKooSn4q8b-27" value="" style="endArrow=none;html=1;rounded=0;labelBackgroundColor=default;strokeColor=default;fontFamily=Helvetica;fontSize=11;fontColor=default;shape=connector;" parent="a64HkmenT_zKooSn4q8b-1" edge="1">
          <mxGeometry width="50" height="50" relative="1" as="geometry">
            <mxPoint x="260" y="160" as="sourcePoint" />
            <mxPoint x="580" y="160" as="targetPoint" />
          </mxGeometry>
        </mxCell>
        <mxCell id="a64HkmenT_zKooSn4q8b-28" style="edgeStyle=orthogonalEdgeStyle;rounded=0;orthogonalLoop=1;jettySize=auto;html=1;exitX=0.5;exitY=0;exitDx=0;exitDy=0;endArrow=none;endFill=0;" parent="a64HkmenT_zKooSn4q8b-1" source="a64HkmenT_zKooSn4q8b-29" edge="1">
          <mxGeometry relative="1" as="geometry">
            <mxPoint x="580" y="160" as="targetPoint" />
          </mxGeometry>
        </mxCell>
        <mxCell id="a64HkmenT_zKooSn4q8b-29" value="&lt;font face=&quot;Helvetica&quot;&gt;&lt;span style=&quot;font-size: 12px;&quot;&gt;Return plain text&lt;/span&gt;&lt;/font&gt;" style="rounded=0;whiteSpace=wrap;html=1;fontFamily=Lucida Console;fontSize=12;fontColor=default;" parent="a64HkmenT_zKooSn4q8b-1" vertex="1">
          <mxGeometry x="520" y="200" width="120" height="60" as="geometry" />
        </mxCell>
        <mxCell id="a64HkmenT_zKooSn4q8b-34" value="Yes" style="text;html=1;align=center;verticalAlign=middle;whiteSpace=wrap;rounded=0;" parent="a64HkmenT_zKooSn4q8b-1" vertex="1">
          <mxGeometry x="380" y="379" width="50" height="30" as="geometry" />
        </mxCell>
        <mxCell id="LgUnG8IKYTyM7h--CjLK-12" style="edgeStyle=none;shape=connector;rounded=0;orthogonalLoop=1;jettySize=auto;html=1;exitX=0.625;exitY=1;exitDx=0;exitDy=0;entryX=0.5;entryY=0;entryDx=0;entryDy=0;strokeColor=default;align=center;verticalAlign=middle;fontFamily=Helvetica;fontSize=11;fontColor=default;labelBackgroundColor=default;endArrow=none;endFill=0;" parent="a64HkmenT_zKooSn4q8b-1" source="LgUnG8IKYTyM7h--CjLK-6" target="LgUnG8IKYTyM7h--CjLK-8" edge="1">
          <mxGeometry relative="1" as="geometry" />
        </mxCell>
        <mxCell id="LgUnG8IKYTyM7h--CjLK-15" style="edgeStyle=none;shape=connector;rounded=0;orthogonalLoop=1;jettySize=auto;html=1;exitX=0.5;exitY=0;exitDx=0;exitDy=0;strokeColor=default;align=center;verticalAlign=middle;fontFamily=Helvetica;fontSize=11;fontColor=default;labelBackgroundColor=default;endArrow=none;endFill=0;" parent="a64HkmenT_zKooSn4q8b-1" source="LgUnG8IKYTyM7h--CjLK-6" edge="1">
          <mxGeometry relative="1" as="geometry">
            <mxPoint x="419" y="500" as="targetPoint" />
          </mxGeometry>
        </mxCell>
        <mxCell id="LgUnG8IKYTyM7h--CjLK-6" value="Is ASCII value &amp;lt; 65?" style="shape=hexagon;perimeter=hexagonPerimeter2;whiteSpace=wrap;html=1;fixedSize=1;fontFamily=Helvetica;fontSize=11;fontColor=default;" parent="a64HkmenT_zKooSn4q8b-1" vertex="1">
          <mxGeometry x="359" y="560" width="120" height="60" as="geometry" />
        </mxCell>
        <mxCell id="LgUnG8IKYTyM7h--CjLK-8" value="Is lowercase and&lt;div&gt;ASCII value &amp;lt; 97?&lt;/div&gt;" style="shape=hexagon;perimeter=hexagonPerimeter2;whiteSpace=wrap;html=1;fixedSize=1;fontFamily=Helvetica;fontSize=11;fontColor=default;" parent="a64HkmenT_zKooSn4q8b-1" vertex="1">
          <mxGeometry x="439" y="680" width="120" height="60" as="geometry" />
        </mxCell>
        <mxCell id="LgUnG8IKYTyM7h--CjLK-10" style="edgeStyle=none;shape=connector;rounded=0;orthogonalLoop=1;jettySize=auto;html=1;exitX=0.5;exitY=0;exitDx=0;exitDy=0;entryX=0.5;entryY=1;entryDx=0;entryDy=0;strokeColor=default;align=center;verticalAlign=middle;fontFamily=Helvetica;fontSize=11;fontColor=default;labelBackgroundColor=default;endArrow=none;endFill=0;" parent="a64HkmenT_zKooSn4q8b-1" source="LgUnG8IKYTyM7h--CjLK-9" target="LgUnG8IKYTyM7h--CjLK-8" edge="1">
          <mxGeometry relative="1" as="geometry" />
        </mxCell>
        <mxCell id="LgUnG8IKYTyM7h--CjLK-9" value="&lt;font style=&quot;font-size: 12px;&quot; face=&quot;Helvetica&quot;&gt;Add 26 to&lt;br&gt;ASCII value&lt;/font&gt;" style="rounded=0;whiteSpace=wrap;html=1;fontFamily=Lucida Console;fontSize=12;fontColor=default;" parent="a64HkmenT_zKooSn4q8b-1" vertex="1">
          <mxGeometry x="439" y="800" width="120" height="60" as="geometry" />
        </mxCell>
        <mxCell id="LgUnG8IKYTyM7h--CjLK-11" value="Yes" style="text;html=1;align=center;verticalAlign=middle;whiteSpace=wrap;rounded=0;" parent="a64HkmenT_zKooSn4q8b-1" vertex="1">
          <mxGeometry x="345" y="619" width="50" height="30" as="geometry" />
        </mxCell>
        <mxCell id="LgUnG8IKYTyM7h--CjLK-13" value="No" style="text;html=1;align=center;verticalAlign=middle;whiteSpace=wrap;rounded=0;" parent="a64HkmenT_zKooSn4q8b-1" vertex="1">
          <mxGeometry x="440" y="620" width="50" height="30" as="geometry" />
        </mxCell>
        <mxCell id="LgUnG8IKYTyM7h--CjLK-14" value="Yes" style="text;html=1;align=center;verticalAlign=middle;whiteSpace=wrap;rounded=0;" parent="a64HkmenT_zKooSn4q8b-1" vertex="1">
          <mxGeometry x="459" y="740" width="50" height="30" as="geometry" />
        </mxCell>
        <mxCell id="4sFyr7GqwE_A7bsYEkHL-0" style="rounded=0;orthogonalLoop=1;jettySize=auto;html=1;exitX=0.5;exitY=0;exitDx=0;exitDy=0;entryX=0.5;entryY=1;entryDx=0;entryDy=0;endArrow=none;endFill=0;" edge="1" parent="a64HkmenT_zKooSn4q8b-1" source="4sFyr7GqwE_A7bsYEkHL-1" target="4sFyr7GqwE_A7bsYEkHL-2">
          <mxGeometry relative="1" as="geometry" />
        </mxCell>
        <mxCell id="4sFyr7GqwE_A7bsYEkHL-1" value="&lt;font face=&quot;Helvetica&quot;&gt;Set lower case&lt;/font&gt;" style="rounded=0;whiteSpace=wrap;html=1;fontFamily=Lucida Console;fontSize=12;fontColor=default;" vertex="1" parent="a64HkmenT_zKooSn4q8b-1">
          <mxGeometry x="200" y="560" width="120" height="60" as="geometry" />
        </mxCell>
        <mxCell id="4sFyr7GqwE_A7bsYEkHL-4" style="rounded=0;orthogonalLoop=1;jettySize=auto;html=1;exitX=0.5;exitY=0;exitDx=0;exitDy=0;entryX=0.5;entryY=1;entryDx=0;entryDy=0;endArrow=none;endFill=0;" edge="1" parent="a64HkmenT_zKooSn4q8b-1" source="4sFyr7GqwE_A7bsYEkHL-2" target="a64HkmenT_zKooSn4q8b-11">
          <mxGeometry relative="1" as="geometry">
            <mxPoint x="260" y="390" as="targetPoint" />
          </mxGeometry>
        </mxCell>
        <mxCell id="4sFyr7GqwE_A7bsYEkHL-2" value="Is ASCII value&lt;br&gt;97-122?" style="shape=hexagon;perimeter=hexagonPerimeter2;whiteSpace=wrap;html=1;fixedSize=1;fontFamily=Helvetica;fontSize=11;fontColor=default;" vertex="1" parent="a64HkmenT_zKooSn4q8b-1">
          <mxGeometry x="200" y="440" width="120" height="60" as="geometry" />
        </mxCell>
        <mxCell id="4sFyr7GqwE_A7bsYEkHL-3" value="Yes" style="text;html=1;align=center;verticalAlign=middle;whiteSpace=wrap;rounded=0;" vertex="1" parent="a64HkmenT_zKooSn4q8b-1">
          <mxGeometry x="221" y="499" width="50" height="30" as="geometry" />
        </mxCell>
      </root>
    </mxGraphModel>
  </diagram>
</mxfile>
